<svg width="15" height="15" viewBox="0 0 15 15" fill="none" xmlns="http://www.w3.org/2000/svg">
<g clip-path="url(#clip0_1_26)">
<path d="M12.689 6.04237C12.689 10.272 7.25087 13.8974 7.25087 13.8974C7.25087 13.8974 1.81274 10.272 1.81274 6.04237C1.81274 4.60009 2.38569 3.21688 3.40553 2.19704C4.42538 1.17719 5.80859 0.604248 7.25087 0.604248C8.69315 0.604248 10.0764 1.17719 11.0962 2.19704C12.1161 3.21688 12.689 4.60009 12.689 6.04237Z" stroke="#211D1D" stroke-width="1.20847" stroke-linecap="round" stroke-linejoin="round"/>
<path d="M7.25082 7.85515C8.25195 7.85515 9.06353 7.04358 9.06353 6.04245C9.06353 5.04131 8.25195 4.22974 7.25082 4.22974C6.24969 4.22974 5.43811 5.04131 5.43811 6.04245C5.43811 7.04358 6.24969 7.85515 7.25082 7.85515Z" stroke="#211D1D" stroke-width="1.20847" stroke-linecap="round" stroke-linejoin="round"/>
</g>
<defs>
<clipPath id="clip0_1_26">
<rect width="14.5017" height="14.5017" fill="white"/>
</clipPath>
</defs>
</svg>
