<svg width="40" height="40" viewBox="0 0 40 40" fill="none" xmlns="http://www.w3.org/2000/svg">
<circle cx="20" cy="20" r="20" fill="#E0DEDE"/>
<path fill-rule="evenodd" clip-rule="evenodd" d="M19.865 10C25.3134 10 29.73 14.528 29.73 20.1145C29.73 24.5824 26.9066 28.3725 22.9892 29.7112C22.4891 29.8108 22.3115 29.495 22.3115 29.2256C22.3115 28.8922 22.3233 27.8032 22.3233 26.4497C22.3233 25.5066 22.0077 24.8911 21.6535 24.5774C23.8504 24.3268 26.1588 23.4714 26.1588 19.5866C26.1588 18.4817 25.7761 17.5801 25.1428 16.8718C25.2454 16.6163 25.5837 15.5875 25.0461 14.1945C25.0461 14.1945 24.2194 13.9235 22.3362 15.2316C21.548 15.0077 20.7035 14.895 19.865 14.8911C19.0265 14.895 18.183 15.0077 17.3958 15.2316C15.5106 13.9235 14.6819 14.1945 14.6819 14.1945C14.1463 15.5875 14.4846 16.6163 14.5862 16.8718C13.9559 17.5801 13.5701 18.4817 13.5701 19.5866C13.5701 23.4615 15.8736 24.33 18.0646 24.5855C17.7825 24.8381 17.527 25.2836 17.4382 25.9376C16.8759 26.1961 15.4474 26.6434 14.5675 25.0976C14.5675 25.0976 14.0456 24.1257 13.0552 24.0547C13.0552 24.0547 12.0933 24.0419 12.9881 24.6694C12.9881 24.6694 13.6343 24.9801 14.0831 26.1491C14.0831 26.1491 14.6622 27.9544 17.4066 27.3427C17.4116 28.1882 17.4204 28.9849 17.4204 29.2256C17.4204 29.493 17.2389 29.8059 16.7467 29.7122C12.8263 28.3754 10 24.5833 10 20.1145C10 14.528 14.4175 10 19.865 10Z" fill="black"/>
</svg>
