<svg width="40" height="40" viewBox="0 0 40 40" fill="none" xmlns="http://www.w3.org/2000/svg">
<circle cx="20" cy="20" r="20" fill="white"/>
<path d="M15.0091 28.7656V15.4508H10.5834V28.7656H15.0096H15.0091ZM12.7972 13.6331C14.3402 13.6331 15.3008 12.6107 15.3008 11.333C15.2719 10.0261 14.3402 9.03223 12.8265 9.03223C11.3118 9.03223 10.3226 10.0261 10.3226 11.3329C10.3226 12.6106 11.2828 13.633 12.7682 13.633H12.7968L12.7972 13.6331ZM17.4588 28.7656H21.8841V21.3308C21.8841 20.9334 21.913 20.5349 22.0299 20.2511C22.3497 19.4557 23.0778 18.6323 24.3007 18.6323C25.9017 18.6323 26.5425 19.8532 26.5425 21.6433V28.7656H30.9677V21.1313C30.9677 17.0417 28.7847 15.1386 25.873 15.1386C23.4859 15.1386 22.4375 16.4728 21.855 17.3816H21.8844V15.4512H17.459C17.5168 16.7003 17.4586 28.7661 17.4586 28.7661L17.4588 28.7656Z" fill="#355FF3"/>
</svg>
