<svg width="216" height="236" viewBox="0 0 216 236" fill="none" xmlns="http://www.w3.org/2000/svg">
<path d="M134.596 25.0154C139.851 18.6114 138.919 9.15968 132.515 3.90446C126.111 -1.35077 116.66 -0.41947 111.404 5.98457L134.596 25.0154ZM15.5 146.5L3.90446 136.985C-0.665651 142.554 -0.631071 150.585 3.98682 156.115C8.60471 161.645 16.5015 163.11 22.7961 159.606L15.5 146.5ZM161 65.5L171.936 75.7662C176.996 70.376 177.374 62.1029 172.827 56.2738C168.28 50.4447 160.163 48.798 153.704 52.394L161 65.5ZM15.5 220.5L4.56355 210.234C-0.533773 215.664 -0.87487 224.012 3.76244 229.84C8.39975 235.668 16.6108 237.21 23.0472 233.463L15.5 220.5ZM201 112.5L212.486 122.148C217.175 116.565 217.171 108.418 212.476 102.84C207.78 97.2622 199.754 95.8684 193.453 99.537L201 112.5ZM111.404 5.98457L3.90446 136.985L27.0955 156.015L134.596 25.0154L111.404 5.98457ZM22.7961 159.606L168.296 78.606L153.704 52.394L8.20389 133.394L22.7961 159.606ZM150.064 55.2338L4.56355 210.234L26.4365 230.766L171.936 75.7662L150.064 55.2338ZM23.0472 233.463L208.547 125.463L193.453 99.537L7.9528 207.537L23.0472 233.463ZM189.514 102.852L105.514 202.852L128.486 222.148L212.486 122.148L189.514 102.852Z" fill="#355FF3"/>
</svg>
